# xmcd
#
# Track frame offsets:
#	182
#	17552
#	34912
#	54747
#	55505
#	76720
#	98120
#	139725
#	153215
#	153937
#	171360
#	191235
#	199967
#	224400
#	244680
#	248100
#
# Disc length: 4151 seconds
#
# Revision: 1
# Processed by: cddbd v1.4PL0 Copyright (c) Steve Scherf et al.
# Submitted via: audiograbber 1.80.04
#
DISCID=d4103510
DTITLE=Mr. Len - Pity The Fool
DYEAR=2001
DGENRE=Hip-Hop
TTITLE0=The Juggaknots - This Morning
TTITLE1=Massinfluence - Get Loose
TTITLE2=Jean Grae ft. Murs - The Hurt
TTITLE3=Interlude 1
TTITLE4=Q-Unique of the Arsonists - Straight
TTITLE5=Lord Sear - Girl (Got to Give it to Me
TTITLE6=Jean Grae and the Melon Bayside High Drama Club - Taco Day
TTITLE7=Agents of Man ft. Amplifire - Force Fed
TTITLE8=Interlude 2
TTITLE9=D-Stroy - Bring it to Me
TTITLE10=Mr Live - What the Fuck?!?
TTITLE11=Interlude 3
TTITLE12=The Brewin and Jean Grae - Love Venom
TTITLE13=Mr Live and Chubb Rock - Dummy Smacks
TTITLE14=Interlude 4
TTITLE15=Kice of Course and Steady Roc - Family Matters
EXTD=
EXTT0=
EXTT1=
EXTT2=
EXTT3=
EXTT4=
EXTT5=
EXTT6=
EXTT7=
EXTT8=
EXTT9=
EXTT10=
EXTT11=
EXTT12=
EXTT13=
EXTT14=
EXTT15=
PLAYORDER=
